<?xml version="1.0" encoding="utf-8"?>
<!-- Generator: Adobe Illustrator 22.1.0, SVG Export Plug-In . SVG Version: 6.00 Build 0)  -->
<svg version="1.1" id="Capa_1" xmlns="http://www.w3.org/2000/svg" xmlns:xlink="http://www.w3.org/1999/xlink" x="0px" y="0px"
	 viewBox="0 0 86.9 80.1" style="enable-background:new 0 0 86.9 80.1;" xml:space="preserve">
<style type="text/css">
	.st0{fill:none;stroke:#22222B;stroke-width:7;stroke-miterlimit:10;}
	.st1{fill:#BE4C44;}
	.st2{fill:#AB4544;}
	.st3{fill:#D6AE5E;}
	.st4{fill:#22222B;}
	.st5{fill:#CF9A41;}
	.st6{opacity:0.34;}
	.st7{fill:#E5E5E4;}
	.st8{opacity:0.34;fill:#E5E5E4;}
	.st9{clip-path:url(#SVGID_2_);}
	.st10{fill:none;stroke:#DAC29A;stroke-width:7;stroke-linecap:round;stroke-miterlimit:10;}
	.st11{clip-path:url(#SVGID_4_);}
	.st12{clip-path:url(#SVGID_6_);}
	.st13{clip-path:url(#SVGID_8_);}
	.st14{clip-path:url(#SVGID_10_);}
	.st15{fill:#ADA8CE;}
	.st16{fill:#8A89BB;}
	.st17{fill:#352E3C;}
	.st18{fill:none;stroke:#C8C5E0;stroke-width:4;stroke-linecap:round;stroke-linejoin:round;stroke-miterlimit:10;}
	.st19{fill:#C8C5E0;}
	.st20{opacity:0.18;fill:#070308;}
	.st21{clip-path:url(#SVGID_12_);}
	.st22{fill:#81A145;stroke:#22222B;stroke-width:7;stroke-miterlimit:10;}
	.st23{fill:#97B952;}
	.st24{fill:#BD2519;stroke:#22222B;stroke-width:7;stroke-miterlimit:10;}
	.st25{fill:url(#);stroke:url(#);stroke-miterlimit:10;}
	.st26{fill:#81A145;}
	.st27{fill:#94B64F;}
	.st28{fill:#6B4B2B;}
	.st29{opacity:0.19;}
	.st30{opacity:0.29;}
	.st31{fill:#FFFFFF;}
	.st32{opacity:0.29;fill:#FFFFFF;}
	.st33{fill:#C03577;}
	.st34{fill:#B53171;}
	.st35{fill:#C65A94;}
	.st36{fill:#C5548D;}
	.st37{fill:#5FA2A2;}
	.st38{fill:#DAD069;stroke:#22222B;stroke-width:4;stroke-miterlimit:10;}
	.st39{fill:#EBDBBF;}
	.st40{opacity:0.5;fill:#E6DCAB;}
	.st41{fill:none;stroke:#A89732;stroke-width:2;stroke-miterlimit:10;}
	.st42{clip-path:url(#SVGID_14_);}
	.st43{clip-path:url(#SVGID_16_);fill:#D6AE5E;stroke:#22222B;stroke-width:7;stroke-miterlimit:10;}
	.st44{clip-path:url(#SVGID_16_);}
	.st45{clip-path:url(#SVGID_18_);}
	.st46{clip-path:url(#SVGID_16_);fill:none;stroke:#22222B;stroke-width:7;stroke-miterlimit:10;}
	.st47{fill:#CE7593;}
	.st48{fill:#B0B0B0;}
	.st49{fill:#9CBC59;}
	.st50{fill:#54917E;}
	.st51{fill:#406F5E;}
	.st52{fill:#88B997;}
	.st53{fill:#78B088;}
	.st54{fill:#406F60;}
	.st55{fill:#76AF86;}
	.st56{fill:#C66D26;}
	.st57{fill:#CE9766;}
	.st58{fill:#D8BBA0;}
	.st59{fill:#D6AE5E;stroke:#22222B;stroke-width:7;stroke-miterlimit:10;}
	.st60{fill:#CE7593;stroke:#22222B;stroke-width:7;stroke-linejoin:round;stroke-miterlimit:10;}
</style>
<g>
	<g>
		<path class="st1" d="M83.4,36.7c0,22.1-17.9,39.9-39.9,39.9S3.5,58.7,3.5,36.7C3.5,23.8,9.6,12.3,19.1,5
			c6.7-5.2,15.2,4.6,24.4,4.6c10.5,0,20-8.9,27.2-2.2C78.4,14.7,83.4,25.1,83.4,36.7z"/>
		<path class="st2" d="M83.4,36.7c0-11.6-4.9-22-12.8-29.3C66.5,3.5,61.5,4.9,56,6.7c1.7,0.3,3.2,1,4.7,2.3
			c7.9,7.3,12.8,17.7,12.8,29.3c0,18-11.9,33.2-28.3,38.2C66.4,75.6,83.4,58.1,83.4,36.7z"/>
	</g>
	<path class="st0" d="M83.4,36.7c0,22.1-17.9,39.9-39.9,39.9S3.5,58.7,3.5,36.7C3.5,23.8,9.6,12.3,19.1,5c6.7-5.2,15.2,4.6,24.4,4.6
		c10.5,0,20-8.9,27.2-2.2C78.4,14.7,83.4,25.1,83.4,36.7z"/>
</g>
</svg>
