<?xml version="1.0" encoding="utf-8"?>
<!-- Generator: Adobe Illustrator 22.1.0, SVG Export Plug-In . SVG Version: 6.00 Build 0)  -->
<svg version="1.1" id="Capa_1" xmlns="http://www.w3.org/2000/svg" xmlns:xlink="http://www.w3.org/1999/xlink" x="0px" y="0px"
	 viewBox="0 0 92.1 82.7" style="enable-background:new 0 0 92.1 82.7;" xml:space="preserve">
<style type="text/css">
	.st0{fill:none;}
	.st1{fill:#94181D;}
	.st2{fill:none;stroke:#22222B;stroke-width:7;stroke-miterlimit:10;}
	.st3{fill:#BE4C44;}
	.st4{fill:#AB4544;}
	.st5{fill:#D6AE5E;}
	.st6{fill:#22222B;}
	.st7{fill:#CF9A41;}
	.st8{opacity:0.34;}
	.st9{fill:#E5E5E4;}
	.st10{opacity:0.34;fill:#E5E5E4;}
	.st11{clip-path:url(#SVGID_2_);}
	.st12{fill:none;stroke:#DAC29A;stroke-width:7;stroke-linecap:round;stroke-miterlimit:10;}
	.st13{clip-path:url(#SVGID_4_);}
	.st14{clip-path:url(#SVGID_6_);}
	.st15{clip-path:url(#SVGID_8_);}
	.st16{clip-path:url(#SVGID_10_);}
	.st17{fill:#ADA8CE;}
	.st18{fill:#8A89BB;}
	.st19{fill:#352E3C;}
	.st20{fill:none;stroke:#C8C5E0;stroke-width:4;stroke-linecap:round;stroke-linejoin:round;stroke-miterlimit:10;}
	.st21{fill:#C8C5E0;}
	.st22{opacity:0.18;fill:#070308;}
	.st23{clip-path:url(#SVGID_12_);}
	.st24{fill:#81A145;stroke:#22222B;stroke-width:7;stroke-miterlimit:10;}
	.st25{fill:#97B952;}
	.st26{fill:#BD2519;stroke:#22222B;stroke-width:7;stroke-miterlimit:10;}
	.st27{fill:url(#SVGID_14_);stroke:url(#SVGID_16_);stroke-miterlimit:10;}
	.st28{fill:#81A145;}
	.st29{fill:#94B64F;}
	.st30{fill:#6B4B2B;}
	.st31{opacity:0.19;}
	.st32{opacity:0.29;}
	.st33{fill:#FFFFFF;}
	.st34{opacity:0.29;fill:#FFFFFF;}
	.st35{fill:#C03577;}
	.st36{fill:#B53171;}
	.st37{fill:#C65A94;}
	.st38{fill:#C5548D;}
	.st39{fill:#5FA2A2;}
	.st40{fill:#DAD069;stroke:#22222B;stroke-width:4;stroke-miterlimit:10;}
	.st41{fill:#EBDBBF;}
	.st42{opacity:0.5;fill:#E6DCAB;}
	.st43{fill:none;stroke:#A89732;stroke-width:2;stroke-miterlimit:10;}
	.st44{clip-path:url(#SVGID_18_);}
	.st45{clip-path:url(#SVGID_19_);fill:#D6AE5E;stroke:#22222B;stroke-width:7;stroke-miterlimit:10;}
	.st46{clip-path:url(#SVGID_19_);}
	.st47{clip-path:url(#SVGID_20_);}
	.st48{clip-path:url(#SVGID_19_);fill:none;stroke:#22222B;stroke-width:7;stroke-miterlimit:10;}
	.st49{fill:#CE7593;}
	.st50{fill:#B0B0B0;}
	.st51{fill:#9CBC59;}
	.st52{fill:#54917E;}
	.st53{fill:#406F5E;}
	.st54{fill:#88B997;}
	.st55{fill:#78B088;}
	.st56{fill:#406F60;}
	.st57{fill:#76AF86;}
	.st58{fill:#C66D26;}
	.st59{fill:#CE9766;}
	.st60{fill:#D8BBA0;}
	.st61{fill:#D6AE5E;stroke:#22222B;stroke-width:7;stroke-miterlimit:10;}
	.st62{fill:#CE7593;stroke:#22222B;stroke-width:7;stroke-linejoin:round;stroke-miterlimit:10;}
</style>
<pattern  x="-540.5" y="-223.5" width="143.9" height="144.2" patternUnits="userSpaceOnUse" id="Nueva_muestra_de_motivo_2" viewBox="0 -144.2 143.9 144.2" style="overflow:visible;">
	<g>
		<rect x="0" y="-144.2" class="st0" width="143.9" height="144.2"/>
		<circle class="st1" cx="76.2" cy="-139.3" r="1.8"/>
		<circle class="st1" cx="84.7" cy="-139.3" r="1.8"/>
		<circle class="st1" cx="93.8" cy="-139.3" r="1.8"/>
		<circle class="st1" cx="103.4" cy="-139.3" r="1.8"/>
		<circle class="st1" cx="76.2" cy="-130.5" r="1.8"/>
		<circle class="st1" cx="84.7" cy="-130.5" r="1.8"/>
		<circle class="st1" cx="93.8" cy="-130.5" r="1.8"/>
		<circle class="st1" cx="103.4" cy="-130.5" r="1.8"/>
		<circle class="st1" cx="76.2" cy="-121" r="1.8"/>
		<circle class="st1" cx="84.7" cy="-121" r="1.8"/>
		<circle class="st1" cx="93.8" cy="-121" r="1.8"/>
		<circle class="st1" cx="103.4" cy="-121" r="1.8"/>
		<circle class="st1" cx="76.2" cy="-112.2" r="1.8"/>
		<circle class="st1" cx="84.7" cy="-112.2" r="1.8"/>
		<circle class="st1" cx="93.8" cy="-112.2" r="1.8"/>
		<circle class="st1" cx="103.4" cy="-112.2" r="1.8"/>
		<circle class="st1" cx="112.4" cy="-139.3" r="1.8"/>
		<circle class="st1" cx="120.9" cy="-139.3" r="1.8"/>
		<circle class="st1" cx="130" cy="-139.3" r="1.8"/>
		<circle class="st1" cx="139.6" cy="-139.3" r="1.8"/>
		<circle class="st1" cx="112.4" cy="-130.5" r="1.8"/>
		<circle class="st1" cx="120.9" cy="-130.5" r="1.8"/>
		<circle class="st1" cx="130" cy="-130.5" r="1.8"/>
		<circle class="st1" cx="139.6" cy="-130.5" r="1.8"/>
		<circle class="st1" cx="112.4" cy="-121" r="1.8"/>
		<circle class="st1" cx="120.9" cy="-121" r="1.8"/>
		<circle class="st1" cx="130" cy="-121" r="1.8"/>
		<circle class="st1" cx="139.6" cy="-121" r="1.8"/>
		<circle class="st1" cx="112.4" cy="-112.2" r="1.8"/>
		<circle class="st1" cx="120.9" cy="-112.2" r="1.8"/>
		<circle class="st1" cx="130" cy="-112.2" r="1.8"/>
		<circle class="st1" cx="139.6" cy="-112.2" r="1.8"/>
		<circle class="st1" cx="76.2" cy="-103.3" r="1.8"/>
		<circle class="st1" cx="84.7" cy="-103.3" r="1.8"/>
		<circle class="st1" cx="93.8" cy="-103.3" r="1.8"/>
		<circle class="st1" cx="103.4" cy="-103.3" r="1.8"/>
		<circle class="st1" cx="76.2" cy="-94.5" r="1.8"/>
		<circle class="st1" cx="84.7" cy="-94.5" r="1.8"/>
		<circle class="st1" cx="93.8" cy="-94.5" r="1.8"/>
		<circle class="st1" cx="103.4" cy="-94.5" r="1.8"/>
		<circle class="st1" cx="76.2" cy="-84.9" r="1.8"/>
		<circle class="st1" cx="84.7" cy="-84.9" r="1.8"/>
		<circle class="st1" cx="93.8" cy="-84.9" r="1.8"/>
		<circle class="st1" cx="103.4" cy="-84.9" r="1.8"/>
		<circle class="st1" cx="76.2" cy="-76.2" r="1.8"/>
		<circle class="st1" cx="84.7" cy="-76.2" r="1.8"/>
		<circle class="st1" cx="93.8" cy="-76.2" r="1.8"/>
		<circle class="st1" cx="103.4" cy="-76.2" r="1.8"/>
		<circle class="st1" cx="112.4" cy="-103.3" r="1.8"/>
		<circle class="st1" cx="120.9" cy="-103.3" r="1.8"/>
		<circle class="st1" cx="130" cy="-103.3" r="1.8"/>
		<circle class="st1" cx="139.6" cy="-103.3" r="1.8"/>
		<circle class="st1" cx="112.4" cy="-94.5" r="1.8"/>
		<circle class="st1" cx="120.9" cy="-94.5" r="1.8"/>
		<circle class="st1" cx="130" cy="-94.5" r="1.8"/>
		<circle class="st1" cx="139.6" cy="-94.5" r="1.8"/>
		<circle class="st1" cx="112.4" cy="-84.9" r="1.8"/>
		<circle class="st1" cx="120.9" cy="-84.9" r="1.8"/>
		<circle class="st1" cx="130" cy="-84.9" r="1.8"/>
		<circle class="st1" cx="139.6" cy="-84.9" r="1.8"/>
		<circle class="st1" cx="112.4" cy="-76.2" r="1.8"/>
		<circle class="st1" cx="120.9" cy="-76.2" r="1.8"/>
		<circle class="st1" cx="130" cy="-76.2" r="1.8"/>
		<circle class="st1" cx="76.3" cy="-67.4" r="1.8"/>
		<circle class="st1" cx="84.8" cy="-67.4" r="1.8"/>
		<circle class="st1" cx="93.9" cy="-67.4" r="1.8"/>
		<circle class="st1" cx="103.5" cy="-67.4" r="1.8"/>
		<circle class="st1" cx="76.3" cy="-58.6" r="1.8"/>
		<circle class="st1" cx="84.8" cy="-58.6" r="1.8"/>
		<circle class="st1" cx="93.9" cy="-58.6" r="1.8"/>
		<circle class="st1" cx="103.5" cy="-58.6" r="1.8"/>
		<circle class="st1" cx="76.3" cy="-49.1" r="1.8"/>
		<circle class="st1" cx="84.8" cy="-49.1" r="1.8"/>
		<circle class="st1" cx="93.9" cy="-49.1" r="1.8"/>
		<circle class="st1" cx="103.5" cy="-49.1" r="1.8"/>
		<circle class="st1" cx="76.3" cy="-40.3" r="1.8"/>
		<circle class="st1" cx="84.8" cy="-40.3" r="1.8"/>
		<circle class="st1" cx="93.9" cy="-40.3" r="1.8"/>
		<circle class="st1" cx="103.5" cy="-40.3" r="1.8"/>
		<circle class="st1" cx="112.5" cy="-67.4" r="1.8"/>
		<circle class="st1" cx="121" cy="-67.4" r="1.8"/>
		<circle class="st1" cx="130.1" cy="-67.4" r="1.8"/>
		<circle class="st1" cx="139.6" cy="-67.4" r="1.8"/>
		<circle class="st1" cx="112.5" cy="-58.6" r="1.8"/>
		<circle class="st1" cx="121" cy="-58.6" r="1.8"/>
		<circle class="st1" cx="130.1" cy="-58.6" r="1.8"/>
		<circle class="st1" cx="139.6" cy="-58.6" r="1.8"/>
		<circle class="st1" cx="112.5" cy="-49.1" r="1.8"/>
		<circle class="st1" cx="121" cy="-49.1" r="1.8"/>
		<circle class="st1" cx="130.1" cy="-49.1" r="1.8"/>
		<circle class="st1" cx="139.6" cy="-49.1" r="1.8"/>
		<circle class="st1" cx="112.5" cy="-40.3" r="1.8"/>
		<circle class="st1" cx="121" cy="-40.3" r="1.8"/>
		<circle class="st1" cx="130.1" cy="-40.3" r="1.8"/>
		<circle class="st1" cx="139.6" cy="-40.3" r="1.8"/>
		<circle class="st1" cx="76.3" cy="-31.4" r="1.8"/>
		<circle class="st1" cx="84.8" cy="-31.4" r="1.8"/>
		<circle class="st1" cx="93.9" cy="-31.4" r="1.8"/>
		<circle class="st1" cx="103.5" cy="-31.4" r="1.8"/>
		<circle class="st1" cx="76.3" cy="-22.6" r="1.8"/>
		<circle class="st1" cx="84.8" cy="-22.6" r="1.8"/>
		<circle class="st1" cx="93.9" cy="-22.6" r="1.8"/>
		<circle class="st1" cx="103.5" cy="-22.6" r="1.8"/>
		<circle class="st1" cx="76.3" cy="-13.1" r="1.8"/>
		<circle class="st1" cx="84.8" cy="-13.1" r="1.8"/>
		<circle class="st1" cx="93.9" cy="-13.1" r="1.8"/>
		<circle class="st1" cx="103.5" cy="-13.1" r="1.8"/>
		<circle class="st1" cx="76.3" cy="-4.3" r="1.8"/>
		<circle class="st1" cx="84.8" cy="-4.3" r="1.8"/>
		<circle class="st1" cx="93.9" cy="-4.3" r="1.8"/>
		<circle class="st1" cx="103.5" cy="-4.3" r="1.8"/>
		<circle class="st1" cx="112.5" cy="-31.4" r="1.8"/>
		<circle class="st1" cx="121" cy="-31.4" r="1.8"/>
		<circle class="st1" cx="130.1" cy="-31.4" r="1.8"/>
		<circle class="st1" cx="139.6" cy="-31.4" r="1.8"/>
		<circle class="st1" cx="112.5" cy="-22.6" r="1.8"/>
		<circle class="st1" cx="121" cy="-22.6" r="1.8"/>
		<circle class="st1" cx="130.1" cy="-22.6" r="1.8"/>
		<circle class="st1" cx="139.6" cy="-22.6" r="1.8"/>
		<circle class="st1" cx="112.5" cy="-13.1" r="1.8"/>
		<circle class="st1" cx="121" cy="-13.1" r="1.8"/>
		<circle class="st1" cx="130.1" cy="-13.1" r="1.8"/>
		<circle class="st1" cx="139.6" cy="-13.1" r="1.8"/>
		<circle class="st1" cx="112.5" cy="-4.3" r="1.8"/>
		<circle class="st1" cx="121" cy="-4.3" r="1.8"/>
		<circle class="st1" cx="130.1" cy="-4.3" r="1.8"/>
		<circle class="st1" cx="139.6" cy="-4.3" r="1.8"/>
		<circle class="st1" cx="4.3" cy="-139.9" r="1.8"/>
		<circle class="st1" cx="12.8" cy="-139.9" r="1.8"/>
		<circle class="st1" cx="21.9" cy="-139.9" r="1.8"/>
		<circle class="st1" cx="31.5" cy="-139.9" r="1.8"/>
		<circle class="st1" cx="4.3" cy="-131.1" r="1.8"/>
		<circle class="st1" cx="12.8" cy="-131.1" r="1.8"/>
		<circle class="st1" cx="21.9" cy="-131.1" r="1.8"/>
		<circle class="st1" cx="31.5" cy="-131.1" r="1.8"/>
		<circle class="st1" cx="4.3" cy="-121.6" r="1.8"/>
		<circle class="st1" cx="12.8" cy="-121.6" r="1.8"/>
		<circle class="st1" cx="21.9" cy="-121.6" r="1.8"/>
		<circle class="st1" cx="31.5" cy="-121.6" r="1.8"/>
		<circle class="st1" cx="4.3" cy="-112.8" r="1.8"/>
		<circle class="st1" cx="12.8" cy="-112.8" r="1.8"/>
		<circle class="st1" cx="21.9" cy="-112.8" r="1.8"/>
		<circle class="st1" cx="31.5" cy="-112.8" r="1.8"/>
		<circle class="st1" cx="40.5" cy="-139.9" r="1.8"/>
		<circle class="st1" cx="49" cy="-139.9" r="1.8"/>
		<circle class="st1" cx="58.1" cy="-139.9" r="1.8"/>
		<circle class="st1" cx="67.7" cy="-139.9" r="1.8"/>
		<circle class="st1" cx="40.5" cy="-131.1" r="1.8"/>
		<circle class="st1" cx="49" cy="-131.1" r="1.8"/>
		<circle class="st1" cx="58.1" cy="-131.1" r="1.8"/>
		<circle class="st1" cx="67.7" cy="-131.1" r="1.8"/>
		<circle class="st1" cx="40.5" cy="-121.6" r="1.8"/>
		<circle class="st1" cx="49" cy="-121.6" r="1.8"/>
		<circle class="st1" cx="58.1" cy="-121.6" r="1.8"/>
		<circle class="st1" cx="67.7" cy="-121.6" r="1.8"/>
		<circle class="st1" cx="40.5" cy="-112.8" r="1.8"/>
		<circle class="st1" cx="49" cy="-112.8" r="1.8"/>
		<circle class="st1" cx="58.1" cy="-112.8" r="1.8"/>
		<circle class="st1" cx="67.7" cy="-112.8" r="1.8"/>
		<circle class="st1" cx="4.3" cy="-103.9" r="1.8"/>
		<circle class="st1" cx="12.8" cy="-103.9" r="1.8"/>
		<circle class="st1" cx="21.9" cy="-103.9" r="1.8"/>
		<circle class="st1" cx="31.5" cy="-103.9" r="1.8"/>
		<circle class="st1" cx="4.3" cy="-95.1" r="1.8"/>
		<circle class="st1" cx="12.8" cy="-95.1" r="1.8"/>
		<circle class="st1" cx="21.9" cy="-95.1" r="1.8"/>
		<circle class="st1" cx="31.5" cy="-95.1" r="1.8"/>
		<circle class="st1" cx="4.3" cy="-85.6" r="1.8"/>
		<circle class="st1" cx="12.8" cy="-85.6" r="1.8"/>
		<circle class="st1" cx="21.9" cy="-85.6" r="1.8"/>
		<circle class="st1" cx="31.5" cy="-85.6" r="1.8"/>
		<circle class="st1" cx="4.3" cy="-76.8" r="1.8"/>
		<circle class="st1" cx="12.8" cy="-76.8" r="1.8"/>
		<circle class="st1" cx="21.9" cy="-76.8" r="1.8"/>
		<circle class="st1" cx="31.5" cy="-76.8" r="1.8"/>
		<circle class="st1" cx="40.5" cy="-103.9" r="1.8"/>
		<circle class="st1" cx="49" cy="-103.9" r="1.8"/>
		<circle class="st1" cx="58.1" cy="-103.9" r="1.8"/>
		<circle class="st1" cx="67.7" cy="-103.9" r="1.8"/>
		<circle class="st1" cx="40.5" cy="-95.1" r="1.8"/>
		<circle class="st1" cx="49" cy="-95.1" r="1.8"/>
		<circle class="st1" cx="58.1" cy="-95.1" r="1.8"/>
		<circle class="st1" cx="67.7" cy="-95.1" r="1.8"/>
		<circle class="st1" cx="40.5" cy="-85.6" r="1.8"/>
		<circle class="st1" cx="49" cy="-85.6" r="1.8"/>
		<circle class="st1" cx="58.1" cy="-85.6" r="1.8"/>
		<circle class="st1" cx="67.7" cy="-85.6" r="1.8"/>
		<circle class="st1" cx="40.5" cy="-76.8" r="1.8"/>
		<circle class="st1" cx="49" cy="-76.8" r="1.8"/>
		<circle class="st1" cx="58.1" cy="-76.8" r="1.8"/>
		<circle class="st1" cx="67.7" cy="-76.8" r="1.8"/>
		<circle class="st1" cx="4.4" cy="-68" r="1.8"/>
		<circle class="st1" cx="12.9" cy="-68" r="1.8"/>
		<circle class="st1" cx="22" cy="-68" r="1.8"/>
		<circle class="st1" cx="31.5" cy="-68" r="1.8"/>
		<circle class="st1" cx="4.4" cy="-59.3" r="1.8"/>
		<circle class="st1" cx="12.9" cy="-59.3" r="1.8"/>
		<circle class="st1" cx="22" cy="-59.3" r="1.8"/>
		<circle class="st1" cx="31.5" cy="-59.3" r="1.8"/>
		<circle class="st1" cx="4.4" cy="-49.7" r="1.8"/>
		<circle class="st1" cx="12.9" cy="-49.7" r="1.8"/>
		<circle class="st1" cx="22" cy="-49.7" r="1.8"/>
		<circle class="st1" cx="31.5" cy="-49.7" r="1.8"/>
		<circle class="st1" cx="4.4" cy="-40.9" r="1.8"/>
		<circle class="st1" cx="12.9" cy="-40.9" r="1.8"/>
		<circle class="st1" cx="22" cy="-40.9" r="1.8"/>
		<circle class="st1" cx="31.5" cy="-40.9" r="1.8"/>
		<circle class="st1" cx="40.6" cy="-68" r="1.8"/>
		<circle class="st1" cx="49.1" cy="-68" r="1.8"/>
		<circle class="st1" cx="58.2" cy="-68" r="1.8"/>
		<circle class="st1" cx="67.7" cy="-68" r="1.8"/>
		<circle class="st1" cx="40.6" cy="-59.3" r="1.8"/>
		<circle class="st1" cx="49.1" cy="-59.3" r="1.8"/>
		<circle class="st1" cx="58.2" cy="-59.3" r="1.8"/>
		<circle class="st1" cx="67.7" cy="-59.3" r="1.8"/>
		<circle class="st1" cx="40.6" cy="-49.7" r="1.8"/>
		<circle class="st1" cx="49.1" cy="-49.7" r="1.8"/>
		<circle class="st1" cx="58.2" cy="-49.7" r="1.8"/>
		<circle class="st1" cx="67.7" cy="-49.7" r="1.8"/>
		<circle class="st1" cx="40.6" cy="-40.9" r="1.8"/>
		<circle class="st1" cx="49.1" cy="-40.9" r="1.8"/>
		<circle class="st1" cx="58.2" cy="-40.9" r="1.8"/>
		<circle class="st1" cx="67.7" cy="-40.9" r="1.8"/>
		<circle class="st1" cx="4.4" cy="-32" r="1.8"/>
		<circle class="st1" cx="12.9" cy="-32" r="1.8"/>
		<circle class="st1" cx="22" cy="-32" r="1.8"/>
		<circle class="st1" cx="31.5" cy="-32" r="1.8"/>
		<circle class="st1" cx="4.4" cy="-23.2" r="1.8"/>
		<circle class="st1" cx="12.9" cy="-23.2" r="1.8"/>
		<circle class="st1" cx="22" cy="-23.2" r="1.8"/>
		<circle class="st1" cx="31.5" cy="-23.2" r="1.8"/>
		<circle class="st1" cx="4.4" cy="-13.7" r="1.8"/>
		<circle class="st1" cx="12.9" cy="-13.7" r="1.8"/>
		<circle class="st1" cx="22" cy="-13.7" r="1.8"/>
		<circle class="st1" cx="31.5" cy="-13.7" r="1.8"/>
		<circle class="st1" cx="4.4" cy="-4.9" r="1.8"/>
		<circle class="st1" cx="12.9" cy="-4.9" r="1.8"/>
		<circle class="st1" cx="22" cy="-4.9" r="1.8"/>
		<circle class="st1" cx="31.5" cy="-4.9" r="1.8"/>
		<circle class="st1" cx="40.6" cy="-32" r="1.8"/>
		<circle class="st1" cx="49.1" cy="-32" r="1.8"/>
		<circle class="st1" cx="58.2" cy="-32" r="1.8"/>
		<circle class="st1" cx="67.7" cy="-32" r="1.8"/>
		<circle class="st1" cx="40.6" cy="-23.2" r="1.8"/>
		<circle class="st1" cx="49.1" cy="-23.2" r="1.8"/>
		<circle class="st1" cx="58.2" cy="-23.2" r="1.8"/>
		<circle class="st1" cx="67.7" cy="-23.2" r="1.8"/>
		<circle class="st1" cx="40.6" cy="-13.7" r="1.8"/>
		<circle class="st1" cx="49.1" cy="-13.7" r="1.8"/>
		<circle class="st1" cx="58.2" cy="-13.7" r="1.8"/>
		<circle class="st1" cx="67.7" cy="-13.7" r="1.8"/>
		<circle class="st1" cx="40.6" cy="-4.9" r="1.8"/>
		<circle class="st1" cx="49.1" cy="-4.9" r="1.8"/>
		<circle class="st1" cx="58.2" cy="-4.9" r="1.8"/>
		<circle class="st1" cx="67.7" cy="-4.9" r="1.8"/>
	</g>
</pattern>
<g>
	<g>
		<path class="st26" d="M88.4,65.1c-0.1-0.4-0.1-0.8-0.2-1.2c-3.6-16.8-12.2-32.5-24.4-44.7c-1.1-1.1-2.3-2.2-3.8-2.4
			c-1.7-0.2-3.3,0.7-4.7,1.6C39.4,29.1,29.4,46.8,24.5,65.3c-0.5,1.7-0.9,3.5-0.2,5.2c0.9,2,3.1,3,5.2,3.7c14.4,4.8,29.8,6,44.9,4.3
			C82.9,77.5,89.8,74.3,88.4,65.1z"/>
		
			<pattern  id="SVGID_2_" xlink:href="#Nueva_muestra_de_motivo_2" patternTransform="matrix(0.4487 -0.6524 0.6524 0.4487 1066.0253 -8636.9502)">
		</pattern>
		
			<pattern  id="SVGID_4_" xlink:href="#Nueva_muestra_de_motivo_2" patternTransform="matrix(0.4487 -0.6524 0.6524 0.4487 1103.6219 -8687.4277)">
		</pattern>
		<path style="fill:url(#SVGID_2_);stroke:url(#SVGID_4_);stroke-miterlimit:10;" d="M87.9,65.8c-0.1-0.4-0.1-0.8-0.2-1.2
			C84.1,47.8,75.5,32.1,63.3,20c-1.1-1.1-2.3-2.2-3.8-2.4c-1.7-0.2-3.3,0.7-4.7,1.6C39,29.8,28.9,47.5,24,65.9
			c-0.5,1.7-0.9,3.5-0.2,5.2c0.9,2,3.1,3,5.2,3.7c14.4,4.8,29.8,6,44.9,4.3C82.4,78.1,89.3,75,87.9,65.8z"/>
		<path class="st2" d="M88.4,65.1c-0.1-0.4-0.1-0.8-0.2-1.2c-3.6-16.8-12.2-32.5-24.4-44.7c-1.1-1.1-2.3-2.2-3.8-2.4
			c-1.7-0.2-3.3,0.7-4.7,1.6C39.4,29.1,29.4,46.8,24.5,65.3c-0.5,1.7-0.9,3.5-0.2,5.2c0.9,2,3.1,3,5.2,3.7c14.4,4.8,29.8,6,44.9,4.3
			C82.9,77.5,89.8,74.3,88.4,65.1z"/>
	</g>
	<g>
		<g>
			<path class="st28" d="M30.5,39.3c0,0,3.4,25.1-25.7,20.9C4.8,60.2,3.1,35.4,30.5,39.3z"/>
			<path class="st6" d="M32.5,40.3c0.2,3.1,0,11.1-5.6,16.7c-4.8,4.8-12.3,6.5-22.3,5.1L3,61.9l-0.1-1.5c0-0.5-0.7-11.3,6.7-18.1
				c4.9-4.5,12-6.2,21.2-4.9l1.4,0.2l0.2,1.4C32.4,39.1,32.5,39.6,32.5,40.3z M6.7,58.6c7.9,0.9,13.8-0.6,17.5-4.2
				c4.3-4.3,4.6-10.5,4.5-13.3c-7.2-0.8-12.8,0.6-16.6,4.1C7.6,49.3,6.8,55.7,6.7,58.6z"/>
		</g>
		<g>
			<path class="st28" d="M33.5,34.9c0,0,23.7-9,6.1-32.6C39.6,2.4,16.9,12.7,33.5,34.9z"/>
			<path class="st6" d="M34.1,36.7l-1.3,0.5l-0.9-1.1c-5.5-7.4-7.5-14.5-5.9-20.9C28.6,5.4,38.4,0.8,38.8,0.6L40.2,0l0.9,1.2
				c6,8.1,8.1,15.5,6.2,22.1c-2.2,7.6-9.2,11.6-12,12.9C34.6,36.5,34.2,36.7,34.1,36.7z M29.8,16.1c-1.3,5,0.2,10.5,4.3,16.5
				c2.5-1.3,7.8-4.6,9.5-10.4c1.5-5-0.1-10.9-4.6-17.4C36.5,6.3,31.3,10.1,29.8,16.1z"/>
		</g>
		<g>
			<path class="st28" d="M30.8,36.9c0,0-22.3,12-28.6-16.8C2.2,20.1,24.9,9.8,30.8,36.9z"/>
			<path class="st6" d="M30.5,39.1c-2.8,1.2-10.4,3.9-17.6,0.5C6.7,36.8,2.5,30.4,0.3,20.5L0,19l1.4-0.6c0.4-0.2,10.3-4.6,19.3-0.1
				c6,3,10,9.1,11.9,18.2l0.3,1.4l-1.3,0.7C31.6,38.6,31.2,38.8,30.5,39.1z M4.4,21.3C6.4,29,9.8,34,14.5,36.2
				c5.5,2.5,11.5,0.7,14.1-0.4c-1.8-7.1-5-11.8-9.6-14.1C13.4,18.9,7.2,20.4,4.4,21.3z"/>
		</g>
	</g>
	<g>
		<path class="st29" d="M7.1,23.1c3.1,1.4,6.1,3.1,9.1,4.8c2.9,1.8,5.8,3.6,8.6,5.7c-3.1-1.4-6.1-3.1-9.1-4.8
			C12.7,27,9.8,25.2,7.1,23.1z"/>
	</g>
	<g>
		<path class="st29" d="M35.7,25.5c0-2.6,0.3-5.2,0.7-7.8c0.4-2.6,0.9-5.1,1.7-7.7c0,2.6-0.3,5.2-0.7,7.8
			C36.9,20.4,36.4,23,35.7,25.5z"/>
	</g>
	<g>
		<path class="st29" d="M24.2,44.6c-2,2.1-4.2,4-6.4,5.8c-2.3,1.8-4.6,3.5-7.1,5c2-2.1,4.2-4,6.4-5.8C19.4,47.8,21.7,46.1,24.2,44.6
			z"/>
	</g>
</g>
</svg>
