<?xml version="1.0" encoding="utf-8"?>
<!-- Generator: Adobe Illustrator 22.1.0, SVG Export Plug-In . SVG Version: 6.00 Build 0)  -->
<svg version="1.1" id="Capa_1" xmlns="http://www.w3.org/2000/svg" xmlns:xlink="http://www.w3.org/1999/xlink" x="0px" y="0px"
	 viewBox="0 0 189.4 305.4" style="enable-background:new 0 0 189.4 305.4;" xml:space="preserve">
<style type="text/css">
	.st0{fill:none;stroke:#22222B;stroke-width:7;stroke-miterlimit:10;}
	.st1{fill:#BE4C44;}
	.st2{fill:#AB4544;}
	.st3{fill:#D6AE5E;}
	.st4{fill:#22222B;}
	.st5{fill:#CF9A41;}
	.st6{opacity:0.34;}
	.st7{fill:#E5E5E4;}
	.st8{opacity:0.34;fill:#E5E5E4;}
	.st9{clip-path:url(#SVGID_2_);}
	.st10{fill:none;stroke:#DAC29A;stroke-width:7;stroke-linecap:round;stroke-miterlimit:10;}
	.st11{clip-path:url(#SVGID_4_);}
	.st12{clip-path:url(#SVGID_6_);}
	.st13{clip-path:url(#SVGID_8_);}
	.st14{clip-path:url(#SVGID_10_);}
	.st15{fill:#ADA8CE;}
	.st16{fill:#8A89BB;}
	.st17{fill:#352E3C;}
	.st18{fill:none;stroke:#C8C5E0;stroke-width:4;stroke-linecap:round;stroke-linejoin:round;stroke-miterlimit:10;}
	.st19{fill:#C8C5E0;}
	.st20{opacity:0.18;fill:#070308;}
	.st21{clip-path:url(#SVGID_12_);}
	.st22{fill:#81A145;stroke:#22222B;stroke-width:7;stroke-miterlimit:10;}
	.st23{fill:#97B952;}
	.st24{fill:#BD2519;stroke:#22222B;stroke-width:7;stroke-miterlimit:10;}
	.st25{fill:url(#);stroke:url(#);stroke-miterlimit:10;}
	.st26{fill:#81A145;}
	.st27{fill:#94B64F;}
	.st28{fill:#6B4B2B;}
	.st29{opacity:0.19;}
	.st30{opacity:0.29;}
	.st31{fill:#FFFFFF;}
	.st32{opacity:0.29;fill:#FFFFFF;}
	.st33{fill:#C03577;}
	.st34{fill:#B53171;}
	.st35{fill:#C65A94;}
	.st36{fill:#C5548D;}
	.st37{fill:#5FA2A2;}
	.st38{fill:#DAD069;stroke:#22222B;stroke-width:4;stroke-miterlimit:10;}
	.st39{fill:#EBDBBF;}
	.st40{opacity:0.5;fill:#E6DCAB;}
	.st41{fill:none;stroke:#A89732;stroke-width:2;stroke-miterlimit:10;}
	.st42{clip-path:url(#SVGID_14_);}
	.st43{clip-path:url(#SVGID_16_);fill:#D6AE5E;stroke:#22222B;stroke-width:7;stroke-miterlimit:10;}
	.st44{clip-path:url(#SVGID_16_);}
	.st45{clip-path:url(#SVGID_18_);}
	.st46{clip-path:url(#SVGID_16_);fill:none;stroke:#22222B;stroke-width:7;stroke-miterlimit:10;}
	.st47{fill:#CE7593;}
	.st48{fill:#B0B0B0;}
	.st49{fill:#9CBC59;}
	.st50{fill:#54917E;}
	.st51{fill:#406F5E;}
	.st52{fill:#88B997;}
	.st53{fill:#78B088;}
	.st54{fill:#406F60;}
	.st55{fill:#76AF86;}
	.st56{fill:#C66D26;}
	.st57{fill:#CE9766;}
	.st58{fill:#D8BBA0;}
	.st59{fill:#D6AE5E;stroke:#22222B;stroke-width:7;stroke-miterlimit:10;}
	.st60{fill:#CE7593;stroke:#22222B;stroke-width:7;stroke-linejoin:round;stroke-miterlimit:10;}
</style>
<g>
	<g>
		<path class="st3" d="M94.7,251.7c-9.4,0-17.5-5.7-20.6-14.6L4.7,37.8c-2.4-6.7-1.3-14,2.8-19.8c4.1-5.8,10.6-9.2,17.8-9.2h138.9
			c7.1,0,13.6,3.3,17.8,9.2c4.1,5.8,5.2,13,2.8,19.8l-69.4,199.3C112.2,246,104.1,251.7,94.7,251.7z"/>
		<path class="st4" d="M164.2,12.4c12.6,0,21.4,12.4,17.3,24.3L112,236c-2.8,8.2-10.1,12.3-17.3,12.3s-14.4-4.1-17.3-12.3L8,36.7
			c-4.1-11.9,4.7-24.3,17.3-24.3H164.2 M164.2,5.4H25.3c-8.2,0-15.9,4-20.6,10.6c-4.7,6.7-6,15.2-3.3,23l69.4,199.3
			c3.6,10.3,13,17,23.9,17c10.9,0,20.3-6.7,23.9-17L188,39c2.7-7.7,1.5-16.3-3.3-23C180,9.3,172.3,5.4,164.2,5.4L164.2,5.4z"/>
	</g>
	<path class="st5" d="M182,34.8L110.8,237c-3.6,10.2-14.7,13.5-23.1,9.9c4-1.7,7.4-5,9.1-9.9L168,34.8c3.9-11-4.4-22.4-16.1-22.4h14
		C177.6,12.4,185.9,23.8,182,34.8z"/>
	<g>
		<g class="st6">
			<path class="st7" d="M81.6,228.4c-0.8,0-1.5-0.5-1.8-1.2c-5.9-16.1-11.4-32.6-16.7-48.6c-3.3-10-6.8-20.4-10.3-30.5l-4.2-12.1
				c-0.3-1,0.2-2,1.2-2.4c1-0.3,2,0.2,2.4,1.2l4.2,12.1c3.5,10.2,7,20.6,10.3,30.6c5.3,15.9,10.8,32.4,16.7,48.5
				c0.4,1-0.1,2-1.1,2.4C82,228.3,81.8,228.4,81.6,228.4z"/>
		</g>
		<circle class="st8" cx="48.6" cy="129.8" r="1.8"/>
	</g>
	<g>
		<defs>
			<path id="SVGID_1_" d="M112,236l69.4-199.3c4.1-11.9-4.7-24.3-17.3-24.3H25.3C12.7,12.4,3.9,24.8,8,36.7L77.5,236
				C83.2,252.3,106.3,252.3,112,236z"/>
		</defs>
		<clipPath id="SVGID_2_">
			<use xlink:href="#SVGID_1_"  style="overflow:visible;"/>
		</clipPath>
		<g class="st9">
			<line class="st10" x1="17" y1="-24.2" x2="178.3" y2="53.5"/>
			<line class="st10" x1="15.8" y1="54.6" x2="177.1" y2="132.3"/>
			<line class="st10" x1="18.7" y1="133.4" x2="180" y2="211.1"/>
			<line class="st10" x1="17.5" y1="212.2" x2="178.8" y2="289.9"/>
			<line class="st10" x1="177.1" y1="-25.9" x2="15.8" y2="51.8"/>
			<line class="st10" x1="178.3" y1="52.9" x2="17" y2="130.6"/>
			<line class="st10" x1="175.4" y1="131.7" x2="14.1" y2="209.5"/>
			<line class="st10" x1="176.6" y1="210.6" x2="15.3" y2="288.3"/>
		</g>
	</g>
</g>
<ellipse class="st20" cx="94.7" cy="293.9" rx="78.8" ry="12"/>
</svg>
