<?xml version="1.0" encoding="utf-8"?>
<!-- Generator: Adobe Illustrator 22.1.0, SVG Export Plug-In . SVG Version: 6.00 Build 0)  -->
<svg version="1.1" id="Capa_1" xmlns="http://www.w3.org/2000/svg" xmlns:xlink="http://www.w3.org/1999/xlink" x="0px" y="0px"
	 viewBox="0 0 80 83" style="enable-background:new 0 0 80 83;" xml:space="preserve">
<style type="text/css">
	.st0{fill:none;stroke:#22222B;stroke-width:7;stroke-miterlimit:10;}
	.st1{fill:#BE4C44;}
	.st2{fill:#AB4544;}
	.st3{fill:#D6AE5E;}
	.st4{fill:#22222B;}
	.st5{fill:#CF9A41;}
	.st6{opacity:0.34;}
	.st7{fill:#E5E5E4;}
	.st8{opacity:0.34;fill:#E5E5E4;}
	.st9{clip-path:url(#SVGID_2_);}
	.st10{fill:none;stroke:#DAC29A;stroke-width:7;stroke-linecap:round;stroke-miterlimit:10;}
	.st11{clip-path:url(#SVGID_4_);}
	.st12{clip-path:url(#SVGID_6_);}
	.st13{clip-path:url(#SVGID_8_);}
	.st14{clip-path:url(#SVGID_10_);}
	.st15{fill:#ADA8CE;}
	.st16{fill:#8A89BB;}
	.st17{fill:#352E3C;}
	.st18{fill:none;stroke:#C8C5E0;stroke-width:4;stroke-linecap:round;stroke-linejoin:round;stroke-miterlimit:10;}
	.st19{fill:#C8C5E0;}
	.st20{opacity:0.18;fill:#070308;}
	.st21{clip-path:url(#SVGID_12_);}
	.st22{fill:#81A145;stroke:#22222B;stroke-width:7;stroke-miterlimit:10;}
	.st23{fill:#97B952;}
	.st24{fill:#BD2519;stroke:#22222B;stroke-width:7;stroke-miterlimit:10;}
	.st25{fill:url(#);stroke:url(#);stroke-miterlimit:10;}
	.st26{fill:#81A145;}
	.st27{fill:#94B64F;}
	.st28{fill:#6B4B2B;}
	.st29{opacity:0.19;}
	.st30{opacity:0.29;}
	.st31{fill:#FFFFFF;}
	.st32{opacity:0.29;fill:#FFFFFF;}
	.st33{fill:#C03577;}
	.st34{fill:#B53171;}
	.st35{fill:#C65A94;}
	.st36{fill:#C5548D;}
	.st37{fill:#5FA2A2;}
	.st38{fill:#DAD069;stroke:#22222B;stroke-width:4;stroke-miterlimit:10;}
	.st39{fill:#EBDBBF;}
	.st40{opacity:0.5;fill:#E6DCAB;}
	.st41{fill:none;stroke:#A89732;stroke-width:2;stroke-miterlimit:10;}
	.st42{clip-path:url(#SVGID_14_);}
	.st43{clip-path:url(#SVGID_16_);fill:#D6AE5E;stroke:#22222B;stroke-width:7;stroke-miterlimit:10;}
	.st44{clip-path:url(#SVGID_16_);}
	.st45{clip-path:url(#SVGID_18_);}
	.st46{clip-path:url(#SVGID_16_);fill:none;stroke:#22222B;stroke-width:7;stroke-miterlimit:10;}
	.st47{fill:#CE7593;}
	.st48{fill:#B0B0B0;}
	.st49{fill:#9CBC59;}
	.st50{fill:#54917E;}
	.st51{fill:#406F5E;}
	.st52{fill:#88B997;}
	.st53{fill:#78B088;}
	.st54{fill:#406F60;}
	.st55{fill:#76AF86;}
	.st56{fill:#C66D26;}
	.st57{fill:#CE9766;}
	.st58{fill:#D8BBA0;}
	.st59{fill:#D6AE5E;stroke:#22222B;stroke-width:7;stroke-miterlimit:10;}
	.st60{fill:#CE7593;stroke:#22222B;stroke-width:7;stroke-linejoin:round;stroke-miterlimit:10;}
</style>
<g>
	<defs>
		<path id="SVGID_15_" d="M17.5,82.8c0.5-0.1,1-0.2,1.5-0.3c21.2-4.7,41-15.7,56.2-31.2c1.3-1.4,2.7-2.9,3-4.8
			c0.3-2.1-0.9-4.2-2.1-5.9C62.5,20.6,40.1,8.1,16.8,2.1c-2.1-0.6-4.5-1.1-6.5-0.2C7.7,3,6.5,5.9,5.7,8.5c-6,18.2-7.3,37.7-5.1,56.7
			C1.9,76,5.9,84.6,17.5,82.8z"/>
	</defs>
	<clipPath id="SVGID_2_">
		<use xlink:href="#SVGID_15_"  style="overflow:visible;"/>
	</clipPath>
	<path style="clip-path:url(#SVGID_2_);fill:#D6AE5E;stroke:#22222B;stroke-width:7;stroke-miterlimit:10;" d="M13.7,93.8
		c0.6-0.1,1.3-0.2,1.9-0.4c27.9-6.2,53.9-20.7,74-41.1c1.8-1.8,3.6-3.8,3.9-6.3c0.4-2.8-1.2-5.5-2.8-7.8C73,12,43.5-4.5,12.8-12.4
		c-2.8-0.7-5.9-1.4-8.6-0.2c-3.4,1.5-4.9,5.3-6.1,8.7C-9.7,20-11.5,45.7-8.5,70.7C-6.8,84.8-1.5,96.2,13.7,93.8z"/>
	<g class="st9">
		<defs>
			<path id="SVGID_17_" d="M-4.5,6.2L2.4,68c1.4,12.5,14.7,19.9,26.1,14.5l36.9-17.7c11.3-5.4,13.9-20.4,5.1-29.4L26.6-8.8
				C14.4-21-6.5-11.1-4.5,6.2z"/>
		</defs>
		<clipPath id="SVGID_4_">
			<use xlink:href="#SVGID_17_"  style="overflow:visible;"/>
		</clipPath>
		<g class="st11">
			<line class="st10" x1="88.6" y1="73.3" x2="1.7" y2="73.1"/>
			<line class="st10" x1="72.6" y1="38.6" x2="-14.3" y2="38.3"/>
			<line class="st10" x1="54.8" y1="4.7" x2="-32.1" y2="4.5"/>
			<line class="st10" x1="18.8" y1="107.6" x2="73.2" y2="39.8"/>
			<line class="st10" x1="1.8" y1="73.3" x2="56.1" y2="5.5"/>
			<line class="st10" x1="-13.4" y1="38.2" x2="40.9" y2="-29.6"/>
			<line class="st10" x1="-30.5" y1="4" x2="23.8" y2="-63.8"/>
		</g>
	</g>
	<path style="clip-path:url(#SVGID_2_);fill:none;stroke:#22222B;stroke-width:7;stroke-miterlimit:10;" d="M17.5,82.8
		c0.5-0.1,1-0.2,1.5-0.3c21.2-4.7,41-15.7,56.2-31.2c1.3-1.4,2.7-2.9,3-4.8c0.3-2.1-0.9-4.2-2.1-5.9C62.5,20.6,40.1,8.1,16.8,2.1
		c-2.1-0.6-4.5-1.1-6.5-0.2C7.7,3,6.5,5.9,5.7,8.5c-6,18.2-7.3,37.7-5.1,56.7C1.9,76,5.9,84.6,17.5,82.8z"/>
</g>
</svg>
