<?xml version="1.0" encoding="utf-8"?>
<!-- Generator: Adobe Illustrator 22.1.0, SVG Export Plug-In . SVG Version: 6.00 Build 0)  -->
<svg version="1.1" id="Capa_1" xmlns="http://www.w3.org/2000/svg" xmlns:xlink="http://www.w3.org/1999/xlink" x="0px" y="0px"
	 viewBox="0 0 92.2 53.1" style="enable-background:new 0 0 92.2 53.1;" xml:space="preserve">
<style type="text/css">
	.st0{fill:none;stroke:#22222B;stroke-width:7;stroke-miterlimit:10;}
	.st1{fill:#BE4C44;}
	.st2{fill:#AB4544;}
	.st3{fill:#D6AE5E;}
	.st4{fill:#22222B;}
	.st5{fill:#CF9A41;}
	.st6{opacity:0.34;}
	.st7{fill:#E5E5E4;}
	.st8{opacity:0.34;fill:#E5E5E4;}
	.st9{clip-path:url(#SVGID_2_);}
	.st10{fill:none;stroke:#DAC29A;stroke-width:7;stroke-linecap:round;stroke-miterlimit:10;}
	.st11{clip-path:url(#SVGID_4_);}
	.st12{clip-path:url(#SVGID_6_);}
	.st13{clip-path:url(#SVGID_8_);}
	.st14{clip-path:url(#SVGID_10_);}
	.st15{fill:#ADA8CE;}
	.st16{fill:#8A89BB;}
	.st17{fill:#352E3C;}
	.st18{fill:none;stroke:#C8C5E0;stroke-width:4;stroke-linecap:round;stroke-linejoin:round;stroke-miterlimit:10;}
	.st19{fill:#C8C5E0;}
	.st20{opacity:0.18;fill:#070308;}
	.st21{clip-path:url(#SVGID_12_);}
	.st22{fill:#81A145;stroke:#22222B;stroke-width:7;stroke-miterlimit:10;}
	.st23{fill:#97B952;}
	.st24{fill:#BD2519;stroke:#22222B;stroke-width:7;stroke-miterlimit:10;}
	.st25{fill:url(#);stroke:url(#);stroke-miterlimit:10;}
	.st26{fill:#81A145;}
	.st27{fill:#94B64F;}
	.st28{fill:#6B4B2B;}
	.st29{opacity:0.19;}
	.st30{opacity:0.29;}
	.st31{fill:#FFFFFF;}
	.st32{opacity:0.29;fill:#FFFFFF;}
	.st33{fill:#C03577;}
	.st34{fill:#B53171;}
	.st35{fill:#C65A94;}
	.st36{fill:#C5548D;}
	.st37{fill:#5FA2A2;}
	.st38{fill:#DAD069;stroke:#22222B;stroke-width:4;stroke-miterlimit:10;}
	.st39{fill:#EBDBBF;}
	.st40{opacity:0.5;fill:#E6DCAB;}
	.st41{fill:none;stroke:#A89732;stroke-width:2;stroke-miterlimit:10;}
	.st42{clip-path:url(#SVGID_14_);}
	.st43{clip-path:url(#SVGID_16_);fill:#D6AE5E;stroke:#22222B;stroke-width:7;stroke-miterlimit:10;}
	.st44{clip-path:url(#SVGID_16_);}
	.st45{clip-path:url(#SVGID_18_);}
	.st46{clip-path:url(#SVGID_16_);fill:none;stroke:#22222B;stroke-width:7;stroke-miterlimit:10;}
	.st47{fill:#CE7593;}
	.st48{fill:#B0B0B0;}
	.st49{fill:#9CBC59;}
	.st50{fill:#54917E;}
	.st51{fill:#406F5E;}
	.st52{fill:#88B997;}
	.st53{fill:#78B088;}
	.st54{fill:#406F60;}
	.st55{fill:#76AF86;}
	.st56{fill:#C66D26;}
	.st57{fill:#CE9766;}
	.st58{fill:#D8BBA0;}
	.st59{fill:#D6AE5E;stroke:#22222B;stroke-width:7;stroke-miterlimit:10;}
	.st60{fill:#CE7593;stroke:#22222B;stroke-width:7;stroke-linejoin:round;stroke-miterlimit:10;}
</style>
<g>
	<g>
		<g>
			<path class="st56" d="M46.4,46.1C68,46.1,85.5,28.6,85.5,7H7.3C7.3,28.6,24.8,46.1,46.4,46.1z"/>
		</g>
		<path class="st57" d="M46.4,41c18.8,0,34.1-15.2,34.1-34H12.4C12.4,25.8,27.6,41,46.4,41z"/>
		<path class="st58" d="M70.6,31.1L46.3,7.2l0,0c0,0-0.1-0.1-0.1-0.1C46,7,45.8,7,45.6,7.2l-24,23.3l0.7,0.7L45.5,8.7V41h1V8.7
			l23.4,23.1L70.6,31.1z"/>
		<path class="st58" d="M38,9.8c-0.8-0.1-1.6-0.2-2.4-0.3c-0.6-0.1-1.3-0.2-1.9-0.3c-0.6-0.1-1.3-0.1-1.8,0.2
			c-1.2,0.6-1.8,2.1-1.3,3.4c0.5,1.3,2.1,2,3.5,1.5c0.6-0.2,1-0.7,1.4-1.1c0.8-1,1.5-2,2.3-2.9C37.8,10.1,38,9.8,38,9.8z"/>
		<path class="st58" d="M43.3,13.6c-0.6,0.5-1.3,1-1.9,1.5c-0.5,0.4-1.1,0.8-1.6,1.2c-0.5,0.4-0.9,0.8-1.1,1.4
			c-0.4,1.3,0.2,2.7,1.5,3.3c1.3,0.6,3-0.1,3.5-1.4c0.2-0.6,0.2-1.2,0.2-1.8c-0.1-1.2-0.3-2.5-0.4-3.7C43.4,14,43.3,13.6,43.3,13.6z
			"/>
		<path class="st58" d="M47.9,13.1c0,0.8,0,1.6,0,2.4c0,0.7,0,1.3,0,2c0,0.6,0.1,1.3,0.5,1.8c0.8,1.1,2.3,1.5,3.5,0.8
			c1.3-0.7,1.7-2.4,1-3.6c-0.3-0.5-0.8-0.9-1.3-1.2c-1.1-0.7-2.2-1.3-3.2-1.9C48.2,13.3,47.9,13.2,47.9,13.1z"/>
		<path class="st58" d="M52.8,9.3c0.8-0.1,1.6-0.2,2.4-0.3c0.6-0.1,1.3-0.2,1.9-0.3C57.7,8.7,58.4,8.7,59,9c1.2,0.6,1.8,2.1,1.3,3.4
			c-0.5,1.3-2.1,2-3.5,1.5c-0.6-0.2-1-0.7-1.4-1.1c-0.8-1-1.5-2-2.3-2.9C53,9.7,52.8,9.3,52.8,9.3z"/>
	</g>
	<g>
		<g>
			<path class="st4" d="M85.2,7c0,21.6-17.5,39.1-39.1,39.1S7,28.6,7,7H85.2 M85.2,0H7C5.1,0,3.4,0.7,2,2.1C0.7,3.4,0,5.1,0,7
				c0,25.4,20.7,46.1,46.1,46.1c25.4,0,46.1-20.7,46.1-46.1c0-1.9-0.7-3.6-2-5C88.9,0.7,87.1,0,85.2,0L85.2,0z"/>
		</g>
	</g>
</g>
</svg>
