<?xml version="1.0" encoding="utf-8"?>
<!-- Generator: Adobe Illustrator 22.1.0, SVG Export Plug-In . SVG Version: 6.00 Build 0)  -->
<svg version="1.1" id="Capa_1" xmlns="http://www.w3.org/2000/svg" xmlns:xlink="http://www.w3.org/1999/xlink" x="0px" y="0px"
	 viewBox="0 0 127.9 76.9" style="enable-background:new 0 0 127.9 76.9;" xml:space="preserve">
<style type="text/css">
	.st0{fill:none;stroke:#22222B;stroke-width:7;stroke-miterlimit:10;}
	.st1{fill:#BE4C44;}
	.st2{fill:#AB4544;}
	.st3{fill:#D6AE5E;}
	.st4{fill:#22222B;}
	.st5{fill:#CF9A41;}
	.st6{opacity:0.34;}
	.st7{fill:#E5E5E4;}
	.st8{opacity:0.34;fill:#E5E5E4;}
	.st9{clip-path:url(#SVGID_2_);}
	.st10{fill:none;stroke:#DAC29A;stroke-width:7;stroke-linecap:round;stroke-miterlimit:10;}
	.st11{clip-path:url(#SVGID_4_);}
	.st12{clip-path:url(#SVGID_6_);}
	.st13{clip-path:url(#SVGID_8_);}
	.st14{clip-path:url(#SVGID_10_);}
	.st15{fill:#ADA8CE;}
	.st16{fill:#8A89BB;}
	.st17{fill:#352E3C;}
	.st18{fill:none;stroke:#C8C5E0;stroke-width:4;stroke-linecap:round;stroke-linejoin:round;stroke-miterlimit:10;}
	.st19{fill:#C8C5E0;}
	.st20{opacity:0.18;fill:#070308;}
	.st21{clip-path:url(#SVGID_12_);}
	.st22{fill:#81A145;stroke:#22222B;stroke-width:7;stroke-miterlimit:10;}
	.st23{fill:#97B952;}
	.st24{fill:#BD2519;stroke:#22222B;stroke-width:7;stroke-miterlimit:10;}
	.st25{fill:url(#);stroke:url(#);stroke-miterlimit:10;}
	.st26{fill:#81A145;}
	.st27{fill:#94B64F;}
	.st28{fill:#6B4B2B;}
	.st29{opacity:0.19;}
	.st30{opacity:0.29;}
	.st31{fill:#FFFFFF;}
	.st32{opacity:0.29;fill:#FFFFFF;}
	.st33{fill:#C03577;}
	.st34{fill:#B53171;}
	.st35{fill:#C65A94;}
	.st36{fill:#C5548D;}
	.st37{fill:#5FA2A2;}
	.st38{fill:#DAD069;stroke:#22222B;stroke-width:4;stroke-miterlimit:10;}
	.st39{fill:#EBDBBF;}
	.st40{opacity:0.5;fill:#E6DCAB;}
	.st41{fill:none;stroke:#A89732;stroke-width:2;stroke-miterlimit:10;}
	.st42{clip-path:url(#SVGID_14_);}
	.st43{clip-path:url(#SVGID_16_);fill:#D6AE5E;stroke:#22222B;stroke-width:7;stroke-miterlimit:10;}
	.st44{clip-path:url(#SVGID_16_);}
	.st45{clip-path:url(#SVGID_18_);}
	.st46{clip-path:url(#SVGID_16_);fill:none;stroke:#22222B;stroke-width:7;stroke-miterlimit:10;}
	.st47{fill:#CE7593;}
	.st48{fill:#B0B0B0;}
	.st49{fill:#9CBC59;}
	.st50{fill:#54917E;}
	.st51{fill:#406F5E;}
	.st52{fill:#88B997;}
	.st53{fill:#78B088;}
	.st54{fill:#406F60;}
	.st55{fill:#76AF86;}
	.st56{fill:#C66D26;}
	.st57{fill:#CE9766;}
	.st58{fill:#D8BBA0;}
	.st59{fill:#D6AE5E;stroke:#22222B;stroke-width:7;stroke-miterlimit:10;}
	.st60{fill:#CE7593;stroke:#22222B;stroke-width:7;stroke-linejoin:round;stroke-miterlimit:10;}
</style>
<g>
	<path class="st22" d="M57.3,73c0,0-19-70.7,66.2-69.5C123.5,3.5,137.5,74.3,57.3,73z"/>
	<path class="st22" d="M50.4,73.3c0,0-58.1,4.7-44.9-61.7C5.4,11.5,62.8,10.7,50.4,73.3z"/>
	<path class="st23" d="M9.1,16c0,0,23.5,1.3,33.2,18.8c0,0,7.5,9.5,4.4,33.7c0,0-1.4-18.4-10.6-32C36.2,36.6,29.2,24.7,9.1,16z"/>
	<path class="st23" d="M60.6,68.6c0,0-5-35.3,15.9-49c3.3-2.2,6.6-4,10.3-5.5c4.4-1.8,8.9-3,13.5-4c5.9-1.2,13.1-2.7,19.1-1.9
		c-5.4,2-10.9,3.2-16.2,5.7c-5.4,2.6-10.4,5.8-15,9.6C74.4,34.8,64.6,50.9,61.5,68.6"/>
</g>
</svg>
