<?xml version="1.0" encoding="utf-8"?>
<!-- Generator: Adobe Illustrator 22.1.0, SVG Export Plug-In . SVG Version: 6.00 Build 0)  -->
<svg version="1.1" id="Capa_1" xmlns="http://www.w3.org/2000/svg" xmlns:xlink="http://www.w3.org/1999/xlink" x="0px" y="0px"
	 viewBox="0 0 217.3 253.5" style="enable-background:new 0 0 217.3 253.5;" xml:space="preserve">
<style type="text/css">
	.st0{fill:none;stroke:#22222B;stroke-width:7;stroke-miterlimit:10;}
	.st1{fill:#BE4C44;}
	.st2{fill:#AB4544;}
	.st3{fill:#D6AE5E;}
	.st4{fill:#22222B;}
	.st5{fill:#CF9A41;}
	.st6{opacity:0.34;}
	.st7{fill:#E5E5E4;}
	.st8{opacity:0.34;fill:#E5E5E4;}
	.st9{clip-path:url(#SVGID_2_);}
	.st10{fill:none;stroke:#DAC29A;stroke-width:7;stroke-linecap:round;stroke-miterlimit:10;}
	.st11{clip-path:url(#SVGID_4_);}
	.st12{clip-path:url(#SVGID_6_);}
	.st13{clip-path:url(#SVGID_8_);}
	.st14{clip-path:url(#SVGID_10_);}
	.st15{fill:#ADA8CE;}
	.st16{fill:#8A89BB;}
	.st17{fill:#352E3C;}
	.st18{fill:none;stroke:#C8C5E0;stroke-width:4;stroke-linecap:round;stroke-linejoin:round;stroke-miterlimit:10;}
	.st19{fill:#C8C5E0;}
	.st20{opacity:0.18;fill:#070308;}
	.st21{clip-path:url(#SVGID_12_);}
	.st22{fill:#81A145;stroke:#22222B;stroke-width:7;stroke-miterlimit:10;}
	.st23{fill:#97B952;}
	.st24{fill:#BD2519;stroke:#22222B;stroke-width:7;stroke-miterlimit:10;}
	.st25{fill:url(#);stroke:url(#);stroke-miterlimit:10;}
	.st26{fill:#81A145;}
	.st27{fill:#94B64F;}
	.st28{fill:#6B4B2B;}
	.st29{opacity:0.19;}
	.st30{opacity:0.29;}
	.st31{fill:#FFFFFF;}
	.st32{opacity:0.29;fill:#FFFFFF;}
	.st33{fill:#C03577;}
	.st34{fill:#B53171;}
	.st35{fill:#C65A94;}
	.st36{fill:#C5548D;}
	.st37{fill:#5FA2A2;}
	.st38{fill:#DAD069;stroke:#22222B;stroke-width:4;stroke-miterlimit:10;}
	.st39{fill:#EBDBBF;}
	.st40{opacity:0.5;fill:#E6DCAB;}
	.st41{fill:none;stroke:#A89732;stroke-width:2;stroke-miterlimit:10;}
	.st42{clip-path:url(#SVGID_14_);}
	.st43{clip-path:url(#SVGID_16_);fill:#D6AE5E;stroke:#22222B;stroke-width:7;stroke-miterlimit:10;}
	.st44{clip-path:url(#SVGID_16_);}
	.st45{clip-path:url(#SVGID_18_);}
	.st46{clip-path:url(#SVGID_16_);fill:none;stroke:#22222B;stroke-width:7;stroke-miterlimit:10;}
	.st47{fill:#CE7593;}
	.st48{fill:#B0B0B0;}
	.st49{fill:#9CBC59;}
	.st50{fill:#54917E;}
	.st51{fill:#406F5E;}
	.st52{fill:#88B997;}
	.st53{fill:#78B088;}
	.st54{fill:#406F60;}
	.st55{fill:#76AF86;}
	.st56{fill:#C66D26;}
	.st57{fill:#CE9766;}
	.st58{fill:#D8BBA0;}
	.st59{fill:#D6AE5E;stroke:#22222B;stroke-width:7;stroke-miterlimit:10;}
	.st60{fill:#CE7593;stroke:#22222B;stroke-width:7;stroke-linejoin:round;stroke-miterlimit:10;}
</style>
<g>
	<g>
		<path class="st39" d="M125.5,250c-11.1,0-20.2-9-20.2-20.2v-19.7c-3.5,3-8.1,4.9-13.2,4.9s-9.6-1.8-13.2-4.9v15.4
			c0,11.1-9,20.2-20.2,20.2s-20.2-9-20.2-20.2v-34c-3.6,3.1-8.4,4.9-13.2,4.9c-5.3,0-9.8-1.8-13.3-5.5c-10-10.5-9.1-33-8.5-49.5
			c0.2-3.9,0.3-7.2,0.2-9.7c-0.6-26,1-55.9,17.1-80.7C40.3,21.7,73.9,3.5,108.9,3.5c36,0,70.1,19,89,49.7
			C207,68,212,85.4,213.4,107.8c0.9,14.1,0.3,28.5-0.3,42.5c-0.4,9-0.7,17.5-0.7,25.9c0,11.1-9,20.2-20.2,20.2
			c-5,0-9.6-1.8-13.2-4.9v7.7c0,11.1-9,20.2-20.2,20.2c-5,0-9.6-1.8-13.2-4.9v15.4C145.7,240.9,136.6,250,125.5,250z"/>
		<path class="st4" d="M108.9,7c34.8,0,67.7,18.4,86,48c10,16.2,13.8,34.3,15,53c1.4,22.7-1.1,46.2-1.1,68.2
			c0,9.2-7.5,16.7-16.7,16.7c-9.2,0-16.7-7.5-16.7-16.7v22.9c0,9.2-7.5,16.7-16.7,16.7c-9.2,0-16.7-7.5-16.7-16.7v30.6
			c0,9.2-7.5,16.7-16.7,16.7c-9.2,0-16.7-7.5-16.7-16.7v-34.9c0,9.2-7.5,16.7-16.7,16.7c-9.2,0-16.7-7.5-16.7-16.7v30.6
			c0,9.2-7.5,16.7-16.7,16.7c-9.2,0-16.7-7.5-16.7-16.7v-49.3c0,3.9-1.4,7.7-3.9,10.7c-3.1,3.7-7.9,6-12.8,6
			c-24.4,0-17.7-45.7-18-61.2C7,104.6,9,76.3,24.2,53C42.7,24.5,74.9,7,108.9,7 M108.9,0l0,7L108.9,0C72.7,0,38,18.8,18.3,49.2
			C1.6,74.7,0,105.3,0.6,131.8c0.1,2.4-0.1,5.7-0.2,9.5c-0.7,17.1-1.6,40.5,9.4,52c4.1,4.3,9.6,6.5,15.8,6.5c3.4,0,6.7-0.7,9.7-2.1
			v27.7c0,13,10.6,23.7,23.7,23.7s23.7-10.6,23.7-23.7v-9c2.9,1.3,6.2,2.1,9.7,2.1s6.7-0.7,9.7-2.1v13.3c0,13,10.6,23.7,23.7,23.7
			c13,0,23.7-10.6,23.7-23.7v-9.1c2.9,1.3,6.2,2.1,9.7,2.1c13,0,23.7-10.6,23.7-23.7v-1.3c2.9,1.3,6.2,2.1,9.7,2.1
			c13,0,23.7-10.6,23.7-23.7c0-8.4,0.4-16.8,0.7-25.8c0.6-14.1,1.2-28.6,0.3-42.9c-1.4-23-6.5-40.9-16-56.3
			C181.3,19.7,146,0,108.9,0L108.9,0z"/>
	</g>
	<g class="st29">
		<path class="st4" d="M208.8,176.2c0,9.2-7.5,16.7-16.7,16.7c-0.8,0-1.5,0-2.3-0.2c5.1-2.9,8.5-8.3,8.5-14.5
			c0-22,2.5-45.5,1.1-68.2c-1.2-18.7-5-36.8-15-53c-18.3-29.6-51.2-48-86-48c-4.5,0-9,0.3-13.4,0.9C92.8,8,100.8,7,108.9,7
			c34.8,0,67.7,18.4,86,48c10,16.2,13.8,34.4,15,53C211.3,130.7,208.8,154.2,208.8,176.2z"/>
	</g>
	<circle class="st17" cx="77.7" cy="99.8" r="8"/>
	<circle class="st17" cx="137.6" cy="99.8" r="8"/>
	<g class="st30">
		<path class="st31" d="M16,169.8C15.9,169.8,15.9,169.8,16,169.8c-1.2-0.1-2.1-1-2-2.1c0.4-9,0.2-18.5,0.1-27.7
			c-0.4-22.3-0.8-45.4,6.8-66.4C32,43.3,60.6,20.2,93.7,14.8c1.1-0.2,2.1,0.6,2.3,1.7s-0.6,2.1-1.7,2.3C62.6,24,35.2,46,24.6,75
			c-7.4,20.2-7,42.9-6.6,64.9c0.2,9.3,0.4,18.8-0.1,28C17.9,169,17,169.8,16,169.8z"/>
	</g>
	<circle class="st32" cx="16.8" cy="174.8" r="2"/>
	<g>
		<path class="st40" d="M87.7,136.1H51.7c-6.6,0-12-5.4-12-12V88c0-6.6,5.4-12,12-12h36.1c6.6,0,12,5.4,12,12v36.1
			C99.7,130.7,94.3,136.1,87.7,136.1z"/>
		<path class="st41" d="M87.7,136.1H51.7c-6.6,0-12-5.4-12-12V88c0-6.6,5.4-12,12-12h36.1c6.6,0,12,5.4,12,12v36.1
			C99.7,130.7,94.3,136.1,87.7,136.1z"/>
		<g>
			<path class="st40" d="M164.4,137h-36.1c-6.6,0-12-5.4-12-12V88.9c0-6.6,5.4-12,12-12h36.1c6.6,0,12,5.4,12,12V125
				C176.4,131.6,171,137,164.4,137z"/>
			<path class="st41" d="M164.4,137h-36.1c-6.6,0-12-5.4-12-12V88.9c0-6.6,5.4-12,12-12h36.1c6.6,0,12,5.4,12,12V125
				C176.4,131.6,171,137,164.4,137z"/>
		</g>
		<path class="st41" d="M99.7,104.7c0,0,8.4-7.5,16.5,0"/>
	</g>
</g>
</svg>
